<svg xmlns="http://www.w3.org/2000/svg" xmlns:xlink="http://www.w3.org/1999/xlink" fill="none" version="1.1" width="512" height="512" viewBox="0 0 512 512"><defs><clipPath id="master_svg0_1_3"><rect x="0" y="0" width="512" height="512" rx="0"/></clipPath></defs><g clip-path="url(#master_svg0_1_3)"><g><path d="M0,0C168.96,0,337.92,0,512,0C512,168.96,512,337.92,512,512C343.04,512,174.08,512,0,512C0,343.04,0,174.08,0,0Z" fill="#F5FDFE" fill-opacity="1" style="mix-blend-mode:passthrough"/></g><g><path d="M290.99980639648436,96.00000194091797C292.07180639648436,96.27288194091797,292.07180639648436,96.27288194091797,293.1658063964844,96.55127194091797C297.86980639648436,97.79593194091797,302.4398063964844,99.30551194091797,306.99980639648436,101.00000194091797C307.7378063964844,101.27296194091797,308.47580639648436,101.54590194091797,309.23580639648435,101.82710194091797C348.4728063964844,116.65670194091797,381.6258063964844,146.64700194091796,398.99980639648436,185.00000194091797C412.3758063964844,215.94630194091798,417.65580639648437,253.21530194091798,407.99980639648436,286.000301940918C407.62980639648435,287.2873019409179,407.62980639648435,287.2873019409179,407.2528063964844,288.601301940918C399.5158063964844,314.93630194091793,386.0128063964844,339.03230194091793,365.99980639648436,358.00030194091795C364.7938063964844,359.237301940918,364.7938063964844,359.237301940918,363.56280639648435,360.50030194091795C362.7168063964844,361.325301940918,361.8708063964844,362.150301940918,360.99980639648436,363.00030194091795C360.34080639648437,363.643301940918,359.68280639648435,364.28630194091795,359.0038063964844,364.94930194091796C327.28580639648436,394.792301940918,283.8378063964844,405.31430194091797,241.35880639648437,404.152301940918C200.01380639648437,402.277301940918,162.52760639648437,382.116301940918,134.50000639648437,352.37530194091795C105.81650639648437,319.62330194091794,92.91554639648437,279.20930194091795,95.00000039648438,236.00030194091798C98.12145639648438,194.55030194091796,118.97360639648437,156.40220194091796,150.14060639648437,129.30470194091797C189.52650639648436,97.55927194091797,241.33780639648438,83.26790194091797,290.99980639648436,96.00000194091797Z" fill="#222225" fill-opacity="1" style="mix-blend-mode:passthrough"/></g><g><path d="M323,124.00000341845703C324.639,125.02071141845703,324.639,125.02071141845703,326,127.00000141845703C326.281,129.87949141845704,326.379,132.54011141845703,326.341,135.41869141845703C326.341,136.27749141845703,326.341,137.13619141845703,326.342,138.02099141845704C326.34000000000003,140.86189141845702,326.31600000000003,143.70219141845703,326.293,146.54299141845704C326.28700000000003,148.51169141845702,326.283,150.48039141845703,326.28,152.44909141845704C326.269,157.63259141845703,326.23900000000003,162.81599141845703,326.206,167.99949141845704C326.175,173.28799141845704,326.16200000000003,178.57659141845704,326.14599999999996,183.86519141845702C326.11400000000003,194.24359141845702,326.063,204.62179141845704,326,214.99999141845703C332.16499999999996,209.64949141845705,332.16499999999996,209.64949141845705,338.148,204.09769141845703C342.404,200.03379141845704,346.688,196.003791418457,351,191.99999141845703C351.541,191.49569141845703,352.082,190.99129141845702,352.639,190.47169141845703C359.60699999999997,184.06639141845704,359.60699999999997,184.06639141845704,364.937,183.81249141845703C369.666,185.64599141845702,369.666,185.64599141845702,371,187.99999141845703C371.499,191.35559141845704,371.764,193.86119141845703,369.812,196.76999141845704C368.116,198.611591418457,366.348,200.31099141845704,364.5,201.99999141845703C363.528,202.92719141845703,363.528,202.92719141845703,362.53700000000003,203.87309141845702C358.865,207.35339141845702,355.124,210.75589141845703,351.262,214.02339141845704C347.225,217.55129141845703,343.351,221.25919141845702,339.453,224.93989141845702C338.837,225.51889141845703,338.221,226.09789141845704,337.586,226.69489141845702C337.03999999999996,227.21089141845704,336.494,227.72689141845703,335.93100000000004,228.25789141845704C334,229.99989141845703,334,229.99989141845703,330.925,231.82689141845702C328.726,233.67789141845702,328.067,234.69389141845704,327.447,237.53289141845704C327.24,240.87289141845702,327.227,244.16789141845703,327.275,247.51389141845704C327.26599999999996,249.41889141845704,327.26599999999996,249.41889141845704,327.257,251.36389141845703C327.245,254.12189141845704,327.251,256.87889141845704,327.272,259.636891418457C327.305,263.998891418457,327.296,268.35989141845704,327.281,272.72289141845704C327.262,279.622891418457,327.27099999999996,286.522891418457,327.29200000000003,293.422891418457C327.33000000000004,305.77789141845705,327.334,318.13389141845704,327.307,330.48989141845703C327.299,334.824891418457,327.308,339.158891418457,327.33000000000004,343.493891418457C327.33799999999997,345.541891418457,327.34000000000003,347.588891418457,327.339,349.636891418457C327.33799999999997,352.13089141845705,327.347,354.62589141845706,327.37,357.11989141845703C327.366,358.22189141845706,327.36199999999997,359.32389141845704,327.358,360.45889141845703C327.36199999999997,361.41389141845707,327.365,362.368891418457,327.368,363.35289141845703C326.922,366.56389141845705,325.954,368.425891418457,324,370.999891418457C320.625,372.124891418457,320.625,372.124891418457,317,371.999891418457C313.971,369.96789141845704,312.264,368.326891418457,311.53700000000003,364.66989141845704C311.342,361.666891418457,311.31600000000003,358.700891418457,311.341,355.69189141845703C311.33000000000004,354.54989141845704,311.32,353.40789141845704,311.30899999999997,352.23189141845705C311.28,348.459891418457,311.286,344.689891418457,311.293,340.91789141845703C311.28,338.301891418457,311.265,335.685891418457,311.247,333.069891418457C311.21000000000004,326.88989141845707,311.198,320.709891418457,311.195,314.52989141845705C311.19,307.492891418457,311.15700000000004,300.454891418457,311.122,293.41789141845703C311.05,278.944891418457,311.01300000000003,264.47289141845704,311,249.99989141845703C310.14300000000003,250.79689141845705,309.286,251.59289141845704,308.402,252.41389141845704C307.247,253.48489141845704,306.09299999999996,254.55489141845703,304.937,255.62489141845703C304.376,256.146891418457,303.815,256.66889141845706,303.236,257.206891418457C302.672,257.728891418457,302.108,258.25089141845706,301.527,258.78889141845707C300.95500000000004,259.326891418457,300.38300000000004,259.863891418457,299.793,260.41789141845703C298,261.999891418457,298,261.999891418457,296.033,263.392891418457C293.315,265.36989141845703,291.349,266.81689141845703,290.377,270.11489141845703C290.127,272.701891418457,290.11400000000003,275.19889141845704,290.177,277.796891418457C290.173,278.766891418457,290.168,279.73689141845705,290.164,280.7358914184571C290.15700000000004,283.93189141845704,290.198,287.124891418457,290.238,290.319891418457C290.23900000000003,292.54389141845706,290.236,294.767891418457,290.23,296.99189141845704C290.22,302.839891418457,290.249,308.68689141845704,290.289,314.53489141845705C290.35,323.901891418457,290.37,333.26889141845703,290.35900000000004,342.63589141845705C290.363,345.908891418457,290.394,349.180891418457,290.426,352.45389141845703C290.43,354.456891418457,290.433,356.45889141845703,290.435,358.46189141845707C290.451,359.372891418457,290.467,360.283891418457,290.483,361.22289141845704C290.456,367.36489141845703,290.456,367.36489141845703,288.15999999999997,370.564891418457C285.199,372.531891418457,283.486,372.58089141845704,280,371.999891418457C277.841,370.49089141845707,277.841,370.49089141845707,276,367.999891418457C275.626,365.08789141845705,275.493,362.559891418457,275.546,359.65089141845704C275.54499999999996,358.81189141845704,275.54499999999996,357.97289141845704,275.544,357.10789141845703C275.547,354.33689141845707,275.578,351.56789141845707,275.60900000000004,348.796891418457C275.61699999999996,346.874891418457,275.623,344.951891418457,275.627,343.02989141845705C275.642,337.97289141845704,275.68100000000004,332.915891418457,275.725,327.858891418457C275.76599999999996,322.69789141845706,275.78499999999997,317.536891418457,275.805,312.374891418457C275.848,302.249891418457,275.916,292.124891418457,276,281.999891418457C274.113,283.64489141845706,272.23400000000004,285.295891418457,270.375,286.97189141845706C268,288.999891418457,268,288.999891418457,265.498,290.68689141845704C261.555,293.52589141845704,259.34000000000003,295.53889141845707,258.21500000000003,300.37089141845706C257.928,304.58289141845705,257.93600000000004,308.701891418457,258.043,312.91789141845703C258.047,314.463891418457,258.047,316.0098914184571,258.043,317.555891418457C258.041,321.60689141845705,258.089,325.656891418457,258.152,329.706891418457C258.246,336.19889141845704,258.273,342.69189141845703,258.281,349.184891418457C258.293,351.445891418457,258.332,353.704891418457,258.375,355.96589141845703C258.385,357.35489141845704,258.395,358.74489141845703,258.403,360.13389141845704C258.421,361.34189141845707,258.44,362.54989141845704,258.45799999999997,363.79489141845704C257.905,367.66789141845703,256.802,369.309891418457,254,371.999891418457C250.5,372.56289141845707,250.5,372.56289141845707,247,371.999891418457C244.313,369.932891418457,243.14100000000002,368.762891418457,242.519,365.392891418457C242.53199999999998,363.91389141845707,242.53199999999998,363.91389141845707,242.546,362.40489141845705C242.546,361.28489141845705,242.547,360.16389141845707,242.547,359.00889141845704C242.567,357.80489141845703,242.588,356.599891418457,242.60899999999998,355.358891418457C242.615,354.12189141845704,242.62099999999998,352.8848914184571,242.627,351.60989141845704C242.64499999999998,348.32789141845706,242.68099999999998,345.046891418457,242.725,341.76589141845704C242.76600000000002,338.41389141845707,242.784,335.06289141845707,242.805,331.71089141845704C242.849,325.13989141845707,242.916,318.569891418457,243,311.999891418457C242.211,312.71189141845707,242.211,312.71189141845707,241.40699999999998,313.43789141845707C240.704,314.06389141845705,240.002,314.689891418457,239.27800000000002,315.334891418457C238.587,315.95389141845703,237.897,316.57289141845706,237.185,317.209891418457C235.064,318.94789141845706,232.91570000000002,320.27989141845705,230.5469,321.648891418457C227.5292,324.28989141845705,226.7511,326.440891418457,226.3418,330.31389141845705C226.0352,335.75189141845703,226.1336,341.18189141845704,226.25,346.624891418457C226.289,349.450891418457,226.3163,352.276891418457,226.3207,355.10289141845703C226.3256,356.855891418457,226.3512,358.60989141845704,226.4005,360.36189141845705C226.4313,364.396891418457,226.3016,366.49189141845704,224.19819999999999,370.036891418457C222,371.999891418457,222,371.999891418457,218.5,372.624891418457C215,371.999891418457,215,371.999891418457,212.8193,369.84689141845706C210.7138,366.551891418457,210.46699999999998,364.701891418457,210.3906,360.82389141845704C210.35840000000002,359.666891418457,210.3262,358.5098914184571,210.293,357.31789141845707C210.2788,356.11989141845703,210.2646,354.921891418457,210.25,353.68789141845707C210.22039999999998,352.469891418457,210.1907,351.252891418457,210.1602,349.997891418457C210.08960000000002,346.998891418457,210.0368,343.999891418457,210,340.999891418457C200.0177,348.39589141845704,200.0177,348.39589141845704,193.9219,358.68389141845705C193.7467,362.076891418457,193.7467,362.076891418457,194.082,365.257891418457C194,367.999891418457,194,367.999891418457,192.1992,370.339891418457C190,371.999891418457,190,371.999891418457,187,372.43789141845707C183.7101,371.95789141845705,182.3324,371.331891418457,180,368.999891418457C178.8985,365.694891418457,178.8418,363.17389141845706,178.7947,359.69289141845707C178.7648,357.74089141845707,178.7648,357.74089141845707,178.7342,355.749891418457C178.7173,354.32889141845703,178.7004,352.908891418457,178.6836,351.487891418457C178.663,350.03489141845705,178.642,348.581891418457,178.6206,347.12889141845704C178.5655,343.30689141845704,178.516,339.48489141845704,178.4678,335.66289141845704C178.4175,331.76089141845705,178.36180000000002,327.85989141845704,178.3066,323.95889141845703C178.1991,316.305891418457,178.0977,308.65289141845705,178,300.999891418457C176.7426,302.094891418457,175.486,303.189891418457,174.2297,304.285891418457C173.1799,305.200891418457,173.1799,305.200891418457,172.109,306.13389141845704C169.529,308.416891418457,167.0216,310.76889141845703,164.5215,313.13889141845704C161.373,316.11989141845703,158.1865,319.059891418457,155,321.999891418457C154.4581,322.50589141845705,153.9162,323.01089141845705,153.3579,323.531891418457C151.9251,324.855891418457,150.4634,326.147891418457,149,327.43789141845707C148.1956,328.15789141845704,147.3913,328.87889141845704,146.5625,329.62089141845706C143.0228,331.52589141845704,140.82501,330.956891418457,137,329.999891418457C134.54709,327.863891418457,134.092422,326.406891418457,133.375,323.249891418457C134.72902,316.20889141845703,141.38295,311.50189141845703,146.6406,307.03889141845707C149.6157,304.46789141845704,152.4935,301.79989141845704,155.375,299.124891418457C171.1642,284.498891418457,171.1642,284.498891418457,175.1004,282.148891418457C177.28289999999998,280.309891418457,177.9337,279.30389141845706,178.549,276.483891418457C178.7528,273.16889141845706,178.7611,269.89989141845706,178.7095,266.57789141845706C178.71370000000002,265.31789141845707,178.7179,264.05689141845704,178.7222,262.757891418457C178.7312,260.02089141845704,178.7215,257.28489141845705,178.69729999999998,254.54889141845703C178.6594,250.21989141845702,178.6651,245.89189141845702,178.67680000000001,241.56389141845705C178.6937,233.15689141845704,178.66559999999998,224.74989141845703,178.6334,216.34349141845703C178.5949,205.64279141845702,178.5788,194.94209141845704,178.5986,184.24139141845703C178.6052,179.93979141845705,178.5909,175.63889141845704,178.5602,171.33739141845703C178.5485,169.30559141845703,178.54590000000002,167.27399141845703,178.5472,165.24209141845702C178.5486,162.76689141845702,178.5356,160.29159141845702,178.50549999999998,157.81649141845702C178.54399999999998,149.78119141845704,178.54399999999998,149.78119141845704,180.8758,145.78609141845703C183.3951,143.66779141845703,184.7011,142.99999141845703,188,142.99999141845703C192.597,145.19399141845702,192.597,145.19399141845702,194,147.99999141845703C194.10410000000002,149.54549141845703,194.1465,151.09539141845704,194.1582,152.64429141845704C194.168,153.62309141845702,194.1778,154.60189141845703,194.1879,155.61039141845703C194.19650000000001,157.22659141845702,194.19650000000001,157.22659141845702,194.2053,158.87549141845705C194.2152,160.00719141845704,194.2251,161.13889141845704,194.2353,162.30489141845703C194.267,166.05999141845703,194.2917,169.81519141845703,194.3164,173.57029141845703C194.337,176.16819141845704,194.358,178.76609141845702,194.3794,181.36399141845703C194.429,187.51209141845703,194.4743,193.66029141845704,194.5174,199.80839141845703C194.5668,206.80719141845702,194.6217,213.80579141845703,194.6771,220.80449141845702C194.7909,235.20289141845703,194.8978,249.60189141845703,195,263.999891418457C195.4545,263.52989141845705,195.90890000000002,263.059891418457,196.37709999999998,262.575891418457C199.5584,259.33289141845705,202.6098,256.49189141845704,206.3838,253.94389141845704C209.002,251.66489141845702,209.8979,250.43489141845703,210.6991,247.02189141845702C210.9564,243.288891418457,210.95080000000002,239.63589141845705,210.8594,235.89489141845704C210.8567,234.52389141845703,210.8582,233.15389141845702,210.86360000000002,231.78289141845704C210.8693,228.19189141845703,210.83100000000002,224.60289141845703,210.7797,221.01169141845702C210.7019,215.25529141845703,210.67829999999998,209.49909141845703,210.6798,203.74219141845703C210.672,201.73679141845702,210.636,199.73159141845701,210.5995,197.72649141845704C210.5934,196.508091418457,210.5873,195.28969141845704,210.5811,194.03439141845703C210.5658,192.96299141845702,210.5506,191.89159141845704,210.5349,190.78769141845703C211.1183,187.29119141845703,212.2217,186.13519141845703,215,183.99999141845703C217.9375,183.43749141845703,217.9375,183.43749141845703,221,183.99999141845703C223.8902,186.04789141845703,225.71890000000002,187.67669141845704,226.47379999999998,191.23039141845703C226.6756,194.01379141845703,226.7182,196.75999141845705,226.707,199.55079141845704C226.7222,200.56469141845702,226.7373,201.57869141845703,226.7529,202.62329141845703C226.7957,205.85329141845705,226.8046,209.08229141845703,226.8125,212.31249141845703C226.8356,214.50589141845703,226.861,216.69929141845705,226.8887,218.89259141845702C226.9515,224.26189141845703,226.9865,229.63089141845703,227,234.99989141845703C227.7477,234.240891418457,228.4953,233.48189141845702,229.2656,232.69889141845704C230.2603,231.69489141845702,231.2551,230.69089141845703,232.25,229.687891418457C232.74110000000002,229.187891418457,233.2323,228.68889141845705,233.738,228.17389141845703C237.74200000000002,224.14389141845703,237.74200000000002,224.14389141845703,240.14499999999998,222.80759141845704C242.344,221.03099141845703,242.344,221.03099141845703,242.49200000000002,217.62909141845705C242.50900000000001,216.21249141845703,242.50400000000002,214.79559141845704,242.482,213.37919141845703C242.488,212.21769141845704,242.488,212.21769141845704,242.494,211.03279141845704C242.5,209.35169141845705,242.497,207.67049141845703,242.486,205.98939141845705C242.469,203.32869141845703,242.476,200.66909141845701,242.49,198.00839141845705C242.51999999999998,191.40049141845702,242.507,184.79269141845703,242.495,178.18479141845702C242.487,172.60209141845704,242.495,167.01989141845704,242.524,161.43729141845702C242.531,158.81569141845702,242.514,156.19499141845702,242.497,153.57349141845702C242.503,151.96579141845703,242.50900000000001,150.35799141845703,242.518,148.75029141845704C242.501,147.65679141845703,242.501,147.65679141845703,242.483,146.54129141845704C242.524,143.15629141845704,242.775,141.30469141845703,244.811,138.55079141845704C248.041,136.26249141845705,250.14600000000002,136.38059141845704,254,136.99999141845703C256.775,139.20559141845703,257.866,141.06959141845704,258.371,144.58379141845703C258.53499999999997,147.98709141845703,258.56,151.36929141845704,258.546,154.77659141845703C258.556,156.07459141845703,258.567,157.37249141845703,258.577,158.70979141845703C258.605,162.26109141845703,258.608,165.81209141845704,258.608,169.36359141845702C258.611,173.07789141845703,258.63599999999997,176.79199141845703,258.659,180.50629141845704C258.7,187.53619141845704,258.72,194.56599141845703,258.733,201.59599141845703C258.749,209.60089141845702,258.788,217.60559141845704,258.828,225.60989141845704C258.90999999999997,242.07389141845704,258.96500000000003,258.536891418457,259,274.999891418457C259.496,274.49189141845704,259.993,273.983891418457,260.504,273.46089141845704C261.183,272.772891418457,261.863,272.08389141845703,262.563,271.374891418457C263.649,270.271891418457,263.649,270.271891418457,264.757,269.14589141845704C266.738,267.249891418457,268.75,265.66489141845705,270.949,264.036891418457C273.55600000000004,261.83089141845704,274.472,260.416891418457,274.853,257.00889141845704C274.878,255.47689141845703,274.866,253.94389141845704,274.823,252.41189141845703C274.827,251.57089141845702,274.832,250.728891418457,274.836,249.86189141845705C274.84299999999996,247.09289141845704,274.802,244.32689141845702,274.762,241.55889141845705C274.76099999999997,239.62889141845704,274.764,237.69889141845704,274.77,235.76889141845703C274.78,230.69489141845702,274.751,225.62289141845702,274.711,220.54959141845703C274.65,212.42659141845704,274.63,204.30379141845702,274.64099999999996,196.18059141845703C274.637,193.34569141845702,274.606,190.51179141845705,274.574,187.67709141845702C274.57,185.93769141845704,274.567,184.19819141845704,274.565,182.45879141845703C274.549,181.67259141845705,274.533,180.88649141845704,274.517,180.07659141845704C274.536,176.37339141845703,274.86699999999996,174.21359141845704,276.844,171.04169141845705C279,168.99999141845703,279,168.99999141845703,281.937,167.87499141845703C285,167.99999141845703,285,167.99999141845703,287.65,170.05349141845704C290.581,173.72859141845703,290.635,175.60909141845704,290.659,180.26879141845703C290.66999999999996,180.98159141845701,290.68,181.69429141845703,290.69100000000003,182.42859141845702C290.72,184.77189141845702,290.714,187.11359141845702,290.707,189.45699141845705C290.72,191.08659141845703,290.735,192.71609141845704,290.753,194.34559141845705C290.793,198.62499141845703,290.803,202.90389141845702,290.807,207.18339141845703C290.81600000000003,211.55399141845703,290.85400000000004,215.92439141845705,290.889,220.29489141845704C290.953,228.86289141845702,290.986,237.43189141845704,291,245.99989141845703C291.85699999999997,245.20289141845703,292.714,244.40689141845704,293.598,243.58589141845704C294.753,242.51589141845704,295.90700000000004,241.44489141845702,297.063,240.37489141845703C297.624,239.85289141845703,298.185,239.33089141845704,298.764,238.79289141845703C299.328,238.27089141845704,299.892,237.74889141845705,300.473,237.21089141845704C301.04499999999996,236.67289141845703,301.61699999999996,236.13589141845705,302.207,235.58189141845702C304,233.99989141845703,304,233.99989141845703,305.967,232.60689141845702C308.685,230.62989141845702,310.651,229.18389141845705,311.623,225.88489141845702C311.873,223.29789141845703,311.88599999999997,220.80139141845703,311.823,218.20259141845702C311.827,217.23279141845703,311.832,216.26299141845703,311.836,215.26379141845703C311.84299999999996,212.06819141845705,311.802,208.87499141845703,311.762,205.67969141845703C311.76099999999997,203.455791418457,311.764,201.23199141845703,311.77,199.008091418457C311.78,193.15999141845703,311.751,187.312891418457,311.711,181.46499141845703C311.65,172.09799141845704,311.63,162.73119141845703,311.64099999999996,153.36409141845704C311.637,150.09099141845704,311.606,146.81879141845704,311.574,143.54589141845702C311.57,141.54349141845702,311.567,139.54099141845703,311.565,137.53859141845703C311.549,136.62729141845702,311.533,135.71609141845704,311.517,134.77719141845702C311.54499999999996,128.60663141845703,311.54499999999996,128.60663141845703,313.902,125.46634141845703C317.422,123.00575641845703,318.848,122.78483041845703,323,124.00000341845703Z" fill="#F3F9FB" fill-opacity="1" style="mix-blend-mode:passthrough"/></g><g><path d="M248.06799999999998,426.8696140308594C253.20499999999998,426.8752956308594,258.342,426.87193183085935,263.47900000000004,426.8661760308594C342.416,426.79102093085936,342.416,426.79102093085936,375,431.9999816308594C375,432.65998163085936,375,433.3199816308594,375,433.9999816308594C363.728,436.46143163085935,352.498,437.2512216308594,341,438.00002163085935C340.315,438.04592163085937,339.631,438.09192163085936,338.925,438.13922163085937C282.299,441.91192163085935,224.63,441.5680216308594,168,438.00002163085935C166.9541,437.9349216308594,166.9541,437.9349216308594,165.887,437.8685216308594C155.4107,437.2080216308594,145.2114,436.51656163085937,135,433.9999816308594C135,433.33998163085937,135,432.6799816308594,135,431.9999816308594C143.62116,430.32560163085935,152.1895,429.51319163085935,160.9485,429.0495416308594C163.0084,428.94035163085937,165.0676,428.8217116308594,167.127,428.70116163085936C170.8913,428.48592163085937,174.6565,428.2983716308594,178.4228,428.1216916308594C180.1766,428.0388716308594,181.9302,427.95289163085937,183.6837,427.86412163085936C205.13819999999998,426.7991432308594,226.5929,426.84566069085935,248.06799999999998,426.8696140308594Z" fill="#C4C5C7" fill-opacity="1" style="mix-blend-mode:passthrough"/></g><g><path d="M144.8125,245.06250658203126C149.0556,248.49645658203124,151.3195,252.69354658203125,152.4141,258.01174658203126C152.7731,262.82144658203123,151.3547,266.25824658203123,148.6094,270.1679465820313C145.2929,273.94324658203124,141.7043,276.52334658203125,136.6953,277.40624658203126C131.7729,277.60514658203124,128.1228,276.84014658203125,124,274.00004658203125C119.63435,269.66504658203127,116.91585,266.1328465820312,116.625,259.81254658203125C116.6942158,254.50024658203125,118.55655,250.97390658203125,122,247.00000658203126C128.92680000000001,241.48680358203126,137.0511,240.09455658203126,144.8125,245.06250658203126Z" fill="#F3FAFB" fill-opacity="1" style="mix-blend-mode:passthrough"/></g><g><path d="M243.00001267089843,242C243.20361267089845,248.68892,243.34321267089842,255.377,243.43941267089843,262.0684C243.47961267089843,264.3421,243.53411267089842,266.6156,243.60351267089843,268.8887C243.70111267089845,272.1659,243.74601267089844,275.4403,243.78121267089844,278.7188C243.82251267089845,279.7274,243.86381267089843,280.7361,243.90641267089845,281.7753C243.91001267089842,287.4938,243.20351267089845,290.4323,239.10721267089843,294.5605C237.75921267089845,295.7318,236.39221267089843,296.8818,235.00000267089843,298C234.17628267089844,298.7631,233.35257267089844,299.5262,232.50390267089844,300.3125C231.86324267089844,300.8694,231.22257267089844,301.42629999999997,230.56250267089843,302C229.90378267089844,302.5775,229.24507267089842,303.155,228.56640267089844,303.75C227.00000267089843,305,227.00000267089843,305,225.99999767089844,305C225.79638067089843,298.3111,225.65674067089844,291.623,225.56054467089845,284.9316C225.52042767089844,282.6579,225.46591767089845,280.3844,225.39648267089845,278.1113C225.29891167089843,274.8341,225.25395367089843,271.5597,225.21874767089844,268.2812C225.17745777089843,267.2726,225.13616757089844,266.2639,225.09362602229845,265.2247C225.09002876089843,259.5062,225.79649167089843,256.5677,229.89282267089843,252.4395C231.24076267089845,251.26821999999999,232.60773267089843,250.11819,234.00000267089843,249C234.82371267089843,248.23688,235.64741267089843,247.47375,236.49611267089844,246.6875C237.13671267089845,246.13062,237.77741267089843,245.57375,238.43751267089843,245C239.09621267089844,244.4225,239.75491267089845,243.845,240.43361267089844,243.25C242.00001267089843,242,242.00001267089843,242,243.00001267089843,242Z" fill="#232426" fill-opacity="1" style="mix-blend-mode:passthrough"/></g><g><path d="M211.00001267089843,271C211.28021267089844,277.81257,211.47201267089844,284.6236,211.60421267089845,291.4407C211.65941267089843,293.7563,211.73431267089845,296.0716,211.82981267089843,298.386C212.64821267089843,318.7323,212.64821267089843,318.7323,208.64311267089843,323.4341C205.85971267089843,325.6925,203.15301267089845,327.319,200.00000267089843,329C198.65685267089845,330.3235,197.32105267089844,331.6545,196.00000267089843,333C195.34000267089843,333,194.68000267089843,333,193.99999767089844,333C193.79634267089844,326.4535,193.65672467089843,319.9078,193.56054467089845,313.3589C193.52043367089843,311.1336,193.46592667089843,308.9086,193.39648267089845,306.6841C193.29888767089844,303.4764,193.25394967089844,300.27139999999997,193.21874767089844,297.0625C193.17745777089843,296.0757,193.13616757089844,295.0889,193.09362602229845,294.0723C193.08998680089843,288.4092,193.83959367089844,285.5375,197.89282267089843,281.4531C199.24111267089845,280.27782,200.60811267089844,279.12333,202.00000267089843,278C202.82371267089843,277.23688,203.64741267089843,276.47375,204.49611267089844,275.6875C205.13671267089845,275.13062,205.77741267089843,274.57375,206.43751267089843,274C207.09621267089844,273.4225,207.75491267089845,272.845,208.43361267089844,272.25C210.00001267089843,271,210.00001267089843,271,211.00001267089843,271Z" fill="#232527" fill-opacity="1" style="mix-blend-mode:passthrough"/></g><g><path d="M273.9999745605469,282C274.65997456054686,282,275.3199745605469,282,275.9999745605469,282C275.9999745605469,309.39,275.9999745605469,336.78,275.9999745605469,365C275.66997456054685,365,275.33997456054686,365,274.9999745605469,365C274.66997456054685,342.56,274.33997456054686,320.12,273.9999745605469,297C273.66997456054685,298.98,273.33997456054686,300.96,272.9999745605469,303C272.66997456054685,303,272.33997456054686,303,271.9999745605469,303C271.66997456054685,300.36,271.33997456054686,297.72,270.9999745605469,295C265.59213456054687,296.0979,265.59213456054687,296.0979,262.0000145605469,300C262.0000145605469,300.99,262.0000145605469,301.98,262.0000145605469,303C261.3648645605469,305.3421,260.7013445605469,307.6768,260.0000145605469,310C259.67001456054686,310,259.3400145605469,310,259.0000145605469,310C256.9963915605469,298.8033,256.9963915605469,298.8033,259.2109545605469,294.8242C261.0393945605469,293.0247,262.9349045605469,291.52126,265.0000145605469,290C266.4662745605469,288.71734,267.9247745605469,287.42575,269.3749745605469,286.125C270.0427745605469,285.55008,270.71047456054686,284.97516,271.3984745605469,284.38281C272.28857456054686,283.6143,273.1684745605469,282.831529,273.9999745605469,282Z" fill="#494C4F" fill-opacity="1" style="mix-blend-mode:passthrough"/></g><g><path d="M241,143C241.66,143.33,242.32,143.66,243,144C243.0926,153.9877,243.16372,163.9752,243.20725,173.9632C243.22814,178.6009,243.25649,183.2382,243.30176,187.8757C243.34516,192.3496,243.36913,196.82330000000002,243.37951,201.2974C243.38691,203.0059,243.40136,204.7143,243.42292,206.4227C243.45188,208.8125,243.45596,211.2011,243.4541,213.59109999999998C243.46848,214.3003,243.48286,215.0095,243.49768,215.74020000000002C243.48102,217.716,243.48102,217.716,243,221C240.97162,222.9631,240.97162,222.9631,239,224C239.278437,222.91719999999998,239.278437,222.91719999999998,239.5625,221.8125C240.16086,219.074,240.16086,219.074,239.5,216.6875C239,214,239,214,239.448975,210.7422C240.31228,204.3389,240.2362,197.8881,240.31641,191.4375C240.33701,190.0365,240.35801,188.6354,240.37938,187.2344C240.43421,183.5717,240.48379,179.909,240.53223,176.2463C240.58273,172.4988,240.63827,168.75130000000001,240.69336,165.0039C240.80046,157.6693,240.90201,150.3347,241,143Z" fill="#3A3D40" fill-opacity="1" style="mix-blend-mode:passthrough"/></g></g></svg>